<?xml version="1.0" encoding="utf-8"?>
<!-- Generator: Adobe Illustrator 19.0.0, SVG Export Plug-In . SVG Version: 6.00 Build 0)  -->
<svg version="1.1" id="Ebene_1" xmlns="http://www.w3.org/2000/svg" xmlns:xlink="http://www.w3.org/1999/xlink" x="0px" y="0px"
	 viewBox="-42.4 271.6 296.4 28.3" style="enable-background:new -42.4 271.6 296.4 28.3;" xml:space="preserve">
<style type="text/css">
	.st0{fill:#FF7D00;}
	.st1{fill:#4D4D4D;}
	.st2{fill:#FFFFFF;}
</style>
<rect x="-42.4" y="271.6" class="st0" width="175.2" height="28.3"/>
<rect x="137.9" y="271.6" class="st1" width="116.1" height="28.3"/>
<path class="st2" d="M-7.1,282.8h4.3c0,0,0-0.9,0-1.5c0-0.7-0.5-1.6-1.2-2.1c-0.8-0.5-1.6-0.7-2.4-0.7c-0.8,0-8.6,0-8.6,0
	s-2,0-3,0.5s-1.8,1.2-1.8,2.3c0,0,0,2.8,0,3.2c0,0.7,0.5,1.4,1.3,1.9c0.4,0.2,1.4,0.6,2.1,0.6c0.2,0,8.2,0,8.7,0s1.1,0.1,1.1,0.9
	c0,0.7,0,0.1,0,0.6c0,0.4-0.1,1-1.2,0.9c-0.4,0-7,0-7,0s-0.4-0.1-0.6-0.4c-0.2-0.3-0.1-1-0.1-1h-4.2v1.9c0,0-0.2,1,1.2,2
	c1,0.7,2.5,0.7,2.5,0.7h9.1c0,0,2.6,0.2,3.8-1c0.9-0.9,0.9-1.8,0.9-2.1c0-0.3,0-2.5,0-2.5s0.1-1-0.6-1.9c-0.6-0.7-1.5-1.3-2.4-1.3
	s-9.3,0-9.3,0s-0.9-0.1-0.9-0.8v-1c0,0,0-0.6,0.8-0.6h6.8c0,0,0.7,0,0.8,0.5v0.9H-7.1z"/>
<polygon class="st2" points="-0.8,278.4 -0.8,292.5 14.9,292.5 14.9,289 3.7,289 3.6,286.7 14,286.7 14,283.9 3.6,283.9 3.6,281.6 
	14.6,281.6 14.6,278.4 "/>
<polygon class="st2" points="15,278.4 22.9,287.5 22.9,292.5 27.1,292.5 27.1,287.5 34.8,278.4 29.8,278.4 25,284 20.2,278.4 "/>
<path class="st2" d="M52.2,285.7c-0.3-0.2-0.8-0.5-1.5-0.5v-0.1c0.6,0,1.9-1,1.9-2.3c0-1.6,0-1.6,0-1.6s0.1-1-0.9-1.9
	c-0.7-0.7-1.1-0.9-2.4-1H36.1c-0.6,0-1,0.5-1,1v12.1c0,0.6,0.5,1,1,1h13h0.1c0.3,0,2.1-0.3,3-1.2c0.9-1,0.8-1.6,0.8-2.7
	C53.2,286.9,53.1,286.4,52.2,285.7L52.2,285.7z M40.5,281.8c1,0,5.9,0,6.8,0c0.8,0,1.1,0.3,1.1,1c0,0.8-0.4,1.1-1.1,1.1h-6.9
	c-0.6,0-1-0.5-1-1.1C39.5,282.2,39.9,281.8,40.5,281.8z M47.7,288.8h-7.2c-0.6,0-1-0.5-1-1l0,0c0-0.6,0.5-1,1-1h7.2
	c0.8,0,1.1,0.3,1.1,1C48.8,288.5,48.4,288.8,47.7,288.8L47.7,288.8z"/>
<path class="st2" d="M72.8,280c-0.5-0.6-1.2-1.6-2.9-1.6c-0.1,0-11.8,0-11.8,0c-0.8,0-1.9,0.4-2.7,1.1c-0.7,0.7-1,1.3-1.1,2.3v6.3
	c0,0.9,0.5,2.4,1.3,3s1.4,1.2,3,1.4h10.5c0,0,1.5,0,3.2-1.4c0.9-0.8,1.3-1.9,1.3-2.9v-6.4C73.6,281.8,73.4,280.5,72.8,280L72.8,280z
	 M68.8,288.1c-0.4,0.5-0.6,0.5-1.1,0.6h-7.6c-0.6,0-0.7-0.1-1.1-0.6c-0.4-0.4-0.3-1.4-0.3-1.4v-3c0-0.4,0-1,0.4-1.5
	c0.6-0.7,1.2-0.6,1.2-0.6h7c0.7,0,1.1,0.2,1.4,0.6c0.5,0.7,0.4,1.4,0.4,1.4v3C69.2,287.1,69.2,287.7,68.8,288.1L68.8,288.1z"/>
<polygon class="st2" points="75,278.4 75,292.5 89,292.5 89,288.6 79.3,288.6 79.3,278.4 "/>
<path class="st2" d="M107.4,279.6c-1-1-2.2-1.2-3-1.2H89.7v14.1h14.4c1.1,0,2.2-0.5,3.2-1.4c0.9-0.9,1.2-1.5,1.2-2.4v-6.9
	C108.6,281.8,108.4,280.6,107.4,279.6L107.4,279.6z M104.2,287.2c0,0,0,0.2-0.4,0.8c-0.4,0.6-1.1,0.6-1.1,0.6H94v-6.8h8.7
	c0.3,0,0.6,0.1,1,0.4c0.5,0.3,0.5,0.7,0.5,0.7V287.2L104.2,287.2z"/>
<polygon class="st2" points="163.3,278.6 163.3,292.5 168,292.5 168,278.6 "/>
<path class="st2" d="M168.7,278.6v14c0,0,2,0,3.1,0c0.9,0,3.4-0.9,3.4-4c0-2.4-2-3.3-2-3.3c-0.1-0.1,1.8-0.3,1.8-3.3
	s-2.5-3.4-3.2-3.4C171.1,278.6,168.7,278.6,168.7,278.6L168.7,278.6z"/>
<path class="st2" d="M175.7,281.5c0,0,0,5.9,0,6.6s0.6,4.4,5.3,4.4c4.6,0,5.2-3.2,5.2-4.4c0-2,0-6.6,0-6.6h-4.9v7.7
	c0,0-0.1,0.3-0.4,0.3s-0.4-0.3-0.4-0.3v-7.7H175.7L175.7,281.5z"/>
<path class="st2" d="M187,281.5v11h4.6v-8.1c0,0,0.1-0.3,0.5-0.3c0.3,0,0.4,0.3,0.4,0.3v2.1h4.5c0,0,0-2.1,0-2.8
	c0-1.1-0.7-2.3-2.7-2.3C192.4,281.5,187,281.5,187,281.5L187,281.5z"/>
<polygon class="st2" points="197.6,278.6 197.6,292.5 202.2,292.5 202.2,288.9 204,292.5 209,292.5 206.1,286.7 208.6,281.5 
	203.6,281.5 202.2,284.5 202.2,278.6 "/>
<path class="st2" d="M213.1,281.5c-2.6,0-5.5,1.5-5.5,5.5c0,3.7,2.8,5.6,5.5,5.6V281.5L213.1,281.5z"/>
<polygon class="st2" points="213.8,281.5 213.8,292.5 218.4,292.5 218.4,281.5 "/>
<polygon class="st2" points="132.8,271.6 137.9,271.6 137.9,283.1 149.7,283.1 149.7,288 137.9,288 137.9,299.9 132.8,299.9 
	132.8,288 120.7,288 120.7,283.1 132.8,283.1 "/>
</svg>
